<?xml version="1.0" standalone="no"?>
<!DOCTYPE svg PUBLIC "-//W3C//DTD SVG 20010904//EN"
 "http://www.w3.org/TR/2001/REC-SVG-20010904/DTD/svg10.dtd">
<svg version="1.0" xmlns="http://www.w3.org/2000/svg"
 width="344.000000pt" height="171.000000pt" viewBox="0 0 344.000000 171.000000"
 preserveAspectRatio="xMidYMid meet">

<g transform="translate(0.000000,171.000000) scale(0.100000,-0.100000)"
fill="#000000" stroke="none">
<path d="M1970 1580 c-298 -19 -561 -86 -805 -205 -217 -105 -357 -208 -540
-397 -128 -131 -226 -258 -327 -424 -77 -127 -214 -402 -204 -411 3 -3 22 8
43 24 534 414 639 492 796 589 50 31 135 97 187 147 228 214 465 358 742 451
108 36 302 79 411 92 31 4 57 10 57 13 -1 3 -39 34 -85 69 -94 69 -71 65 -275
52z"/>
<path d="M2430 1423 c-243 -23 -372 -48 -535 -100 -438 -142 -778 -409 -1058
-831 -71 -107 -245 -432 -232 -432 4 0 120 88 258 195 668 519 987 666 1526
706 231 17 573 -13 864 -75 59 -13 107 -22 107 -20 0 1 -165 129 -366 283
l-365 281 -82 -2 c-45 0 -98 -3 -117 -5z"/>
</g>
</svg>
